<?xml version="1.0" standalone="no"?>
<svg xmlns:xlink="http://www.w3.org/1999/xlink" id="wave" style="transform:rotate(0deg); transition: 0.3s" viewBox="0 0 1440 120" version="1.1" xmlns="http://www.w3.org/2000/svg"><defs><linearGradient id="sw-gradient-0" x1="0" x2="0" y1="1" y2="0"><stop stop-color="rgba(243, 106, 62, 1)" offset="0%"/><stop stop-color="rgba(255, 179, 11, 1)" offset="100%"/></linearGradient></defs><path style="transform:translate(0, 0px); opacity:1" fill="url(#sw-gradient-0)" d="M0,36L120,46C240,56,480,76,720,80C960,84,1200,72,1440,60C1680,48,1920,36,2160,40C2400,44,2640,64,2880,76C3120,88,3360,92,3600,92C3840,92,4080,88,4320,86C4560,84,4800,84,5040,74C5280,64,5520,44,5760,32C6000,20,6240,16,6480,20C6720,24,6960,36,7200,38C7440,40,7680,32,7920,34C8160,36,8400,48,8640,54C8880,60,9120,60,9360,62C9600,64,9840,68,10080,64C10320,60,10560,48,10800,52C11040,56,11280,76,11520,72C11760,68,12000,40,12240,30C12480,20,12720,28,12960,44C13200,60,13440,84,13680,78C13920,72,14160,36,14400,18C14640,0,14880,0,15120,16C15360,32,15600,64,15840,68C16080,72,16320,48,16560,34C16800,20,17040,16,17160,14L17280,12L17280,120L17160,120C17040,120,16800,120,16560,120C16320,120,16080,120,15840,120C15600,120,15360,120,15120,120C14880,120,14640,120,14400,120C14160,120,13920,120,13680,120C13440,120,13200,120,12960,120C12720,120,12480,120,12240,120C12000,120,11760,120,11520,120C11280,120,11040,120,10800,120C10560,120,10320,120,10080,120C9840,120,9600,120,9360,120C9120,120,8880,120,8640,120C8400,120,8160,120,7920,120C7680,120,7440,120,7200,120C6960,120,6720,120,6480,120C6240,120,6000,120,5760,120C5520,120,5280,120,5040,120C4800,120,4560,120,4320,120C4080,120,3840,120,3600,120C3360,120,3120,120,2880,120C2640,120,2400,120,2160,120C1920,120,1680,120,1440,120C1200,120,960,120,720,120C480,120,240,120,120,120L0,120Z"/></svg>